<svg width="1069" height="200" viewBox="0 0 1069 200" fill="none" xmlns="http://www.w3.org/2000/svg">
<path d="M62.0071 0L106.864 137L151.436 0H211.15L144.579 200H68.0071L0.864258 0H62.0071Z" fill="#1C3203"/>
<path d="M231.293 0H311.579L375.865 200H316.436L305.579 165.714H271.008H236.436L225.579 200H166.15L231.293 0ZM249.008 115L271.15 125L293.293 115L271.293 48.2857L249.008 115Z" fill="#1C3203"/>
<path d="M546.864 20H566.864L547.42 39.4444L567.42 59.4443H546.864L527.142 39.7222L546.864 20Z" fill="#1C3203"/>
<path fill-rule="evenodd" clip-rule="evenodd" d="M421.42 59.4443H487.975C509.453 59.4443 526.864 42.0332 526.864 20.5555V0H416.975C383.225 0 355.864 27.3603 355.864 61.111V68.8888C355.864 102.639 383.225 130 416.975 130H521.864C524.625 130 526.864 132.238 526.864 135C526.864 137.761 524.625 140 521.864 140H446.864C413.727 140 386.864 166.863 386.864 200H525.753C559.504 200 586.864 172.639 586.864 138.889V131.666C586.864 97.9158 559.504 70.5554 525.753 70.5554H421.42C418.351 70.5554 415.864 68.0681 415.864 64.9999C415.864 61.9317 418.351 59.4443 421.42 59.4443ZM486.864 20L496.586 29.7222L486.864 39.4444L477.142 29.7222L486.864 20Z" fill="#1C3203"/>
<path d="M681.314 199.904C635.226 199.904 597.864 162.542 597.864 116.453V0.0966797H657.394V116.783C657.394 129.994 668.104 140.704 681.314 140.704C694.525 140.704 705.235 129.994 705.235 116.783V0.0966797H764.765V116.453C764.765 162.542 727.403 199.904 681.314 199.904Z" fill="#1C3203"/>
<path d="M839.422 109.428V200H779.765V0H839.422V89.4284L883.886 24.3935C894.323 9.12862 911.623 0 930.114 0H966.564L898.279 99.1427L967.136 200H930.743C912.219 200 894.895 190.84 884.465 175.533L839.422 109.428Z" fill="#1C3203"/>
<path d="M977.136 200H1037.14V0H977.136V200Z" fill="#1C3203"/>
<path d="M1056.3 2.68848H1053.62V11.2002H1050.69V2.68848H1048V0H1056.3V2.68848ZM1062.98 5.00781L1066.11 0H1068.75V11.2002H1066.03V4.68848L1063.46 8.64062H1062.45L1059.9 4.7041V11.2002H1057.17V0H1059.82L1062.98 5.00781Z" fill="#1C3203"/>
</svg>
